<svg aria-roledescription="er" role="graphics-document document" viewBox="0 0 3565.666259765625 1086.078125" height="1086.078125" xmlns="http://www.w3.org/2000/svg" width="3565.666259765625" id="tmpMermaidElement3136"><style>svg {background: white;}#tmpMermaidElement3136{font-family:"trebuchet ms",verdana,arial,sans-serif;font-size:16px;fill:#333;}#tmpMermaidElement3136 .error-icon{fill:#552222;}#tmpMermaidElement3136 .error-text{fill:#552222;stroke:#552222;}#tmpMermaidElement3136 .edge-thickness-normal{stroke-width:2px;}#tmpMermaidElement3136 .edge-thickness-thick{stroke-width:3.5px;}#tmpMermaidElement3136 .edge-pattern-solid{stroke-dasharray:0;}#tmpMermaidElement3136 .edge-pattern-dashed{stroke-dasharray:3;}#tmpMermaidElement3136 .edge-pattern-dotted{stroke-dasharray:2;}#tmpMermaidElement3136 .marker{fill:#333333;stroke:#333333;}#tmpMermaidElement3136 .marker.cross{stroke:#333333;}#tmpMermaidElement3136 svg{font-family:"trebuchet ms",verdana,arial,sans-serif;font-size:16px;}#tmpMermaidElement3136 .entityBox{fill:#ECECFF;stroke:#9370DB;}#tmpMermaidElement3136 .attributeBoxOdd{fill:#ffffff;stroke:#9370DB;}#tmpMermaidElement3136 .attributeBoxEven{fill:#f2f2f2;stroke:#9370DB;}#tmpMermaidElement3136 .relationshipLabelBox{fill:hsl(80, 100%, 96.2745098039%);opacity:0.7;background-color:hsl(80, 100%, 96.2745098039%);}#tmpMermaidElement3136 .relationshipLabelBox rect{opacity:0.5;}#tmpMermaidElement3136 .relationshipLine{stroke:#333333;}#tmpMermaidElement3136 .entityTitleText{text-anchor:middle;font-size:18px;fill:#333;}#tmpMermaidElement3136 #MD_PARENT_START{fill:#f5f5f5!important;stroke:#333333!important;stroke-width:1;}#tmpMermaidElement3136 #MD_PARENT_END{fill:#f5f5f5!important;stroke:#333333!important;stroke-width:1;}#tmpMermaidElement3136 :root{--mermaid-font-family:"trebuchet ms",verdana,arial,sans-serif;}</style><g></g><defs><marker orient="auto" markerHeight="240" markerWidth="190" refY="7" refX="0" id="MD_PARENT_START"><path d="M 18,7 L9,13 L1,7 L9,1 Z"></path></marker></defs><defs><marker orient="auto" markerHeight="28" markerWidth="20" refY="7" refX="19" id="MD_PARENT_END"><path d="M 18,7 L9,13 L1,7 L9,1 Z"></path></marker></defs><defs><marker orient="auto" markerHeight="18" markerWidth="18" refY="9" refX="0" id="ONLY_ONE_START"><path d="M9,0 L9,18 M15,0 L15,18" fill="none" stroke="gray"></path></marker></defs><defs><marker orient="auto" markerHeight="18" markerWidth="18" refY="9" refX="18" id="ONLY_ONE_END"><path d="M3,0 L3,18 M9,0 L9,18" fill="none" stroke="gray"></path></marker></defs><defs><marker orient="auto" markerHeight="18" markerWidth="30" refY="9" refX="0" id="ZERO_OR_ONE_START"><circle r="6" cy="9" cx="21" fill="white" stroke="gray"></circle><path d="M9,0 L9,18" fill="none" stroke="gray"></path></marker></defs><defs><marker orient="auto" markerHeight="18" markerWidth="30" refY="9" refX="30" id="ZERO_OR_ONE_END"><circle r="6" cy="9" cx="9" fill="white" stroke="gray"></circle><path d="M21,0 L21,18" fill="none" stroke="gray"></path></marker></defs><defs><marker orient="auto" markerHeight="36" markerWidth="45" refY="18" refX="18" id="ONE_OR_MORE_START"><path d="M0,18 Q 18,0 36,18 Q 18,36 0,18 M42,9 L42,27" fill="none" stroke="gray"></path></marker></defs><defs><marker orient="auto" markerHeight="36" markerWidth="45" refY="18" refX="27" id="ONE_OR_MORE_END"><path d="M3,9 L3,27 M9,18 Q27,0 45,18 Q27,36 9,18" fill="none" stroke="gray"></path></marker></defs><defs><marker orient="auto" markerHeight="36" markerWidth="57" refY="18" refX="18" id="ZERO_OR_MORE_START"><circle r="6" cy="18" cx="48" fill="white" stroke="gray"></circle><path d="M0,18 Q18,0 36,18 Q18,36 0,18" fill="none" stroke="gray"></path></marker></defs><defs><marker orient="auto" markerHeight="36" markerWidth="57" refY="18" refX="39" id="ZERO_OR_MORE_END"><circle r="6" cy="18" cx="9" fill="white" stroke="gray"></circle><path d="M21,18 Q39,0 57,18 Q39,36 21,18" fill="none" stroke="gray"></path></marker></defs><path style="stroke: gray; fill: none;" marker-start="url(#ONLY_ONE_START)" marker-end="url(#ZERO_OR_MORE_END)" d="M203.918,179.016L203.918,201.349C203.918,223.682,203.918,268.349,203.918,301.014C203.918,333.68,203.918,354.344,203.918,364.676L203.918,375.008" class="er relationshipLine"></path><path style="stroke: gray; fill: none;" marker-start="url(#ONLY_ONE_START)" marker-end="url(#ZERO_OR_MORE_END)" d="M203.918,426.023L203.918,436.355C203.918,446.688,203.918,467.352,203.918,486.017C203.918,504.682,203.918,521.349,203.918,529.682L203.918,538.016" class="er relationshipLine"></path><path style="stroke: gray; fill: none;" marker-start="url(#ONLY_ONE_START)" marker-end="url(#ZERO_OR_MORE_END)" d="M203.918,589.031L203.918,597.365C203.918,605.698,203.918,622.365,203.918,639.031C203.918,655.698,203.918,672.365,203.918,680.698L203.918,689.031" class="er relationshipLine"></path><path style="stroke: gray; fill: none;" marker-start="url(#ONLY_ONE_START)" marker-end="url(#ZERO_OR_MORE_END)" d="M203.918,740.047L203.918,748.38C203.918,756.714,203.918,773.38,203.918,790.047C203.918,806.714,203.918,823.38,203.918,831.714L203.918,840.047" class="er relationshipLine"></path><path style="stroke: gray; fill: none;" marker-start="url(#ONLY_ONE_START)" marker-end="url(#ZERO_OR_MORE_END)" d="M203.918,915.063L203.918,923.396C203.918,931.729,203.918,948.396,203.918,965.063C203.918,981.729,203.918,998.396,203.918,1006.729L203.918,1015.063" class="er relationshipLine"></path><path style="stroke: gray; fill: none;" marker-start="url(#ONLY_ONE_START)" marker-end="url(#ONLY_ONE_END)" d="M1042.456,189.45L939.578,210.044C836.701,230.638,630.946,271.827,528.068,300.755C425.191,329.682,425.191,346.349,425.191,354.682L425.191,363.016" class="er relationshipLine"></path><path style="stroke: gray; fill: none;" marker-start="url(#ONLY_ONE_START)" marker-end="url(#ZERO_OR_MORE_END)" d="M1042.456,207.701L978.951,225.254C915.446,242.806,788.435,277.911,724.93,303.797C661.425,329.682,661.425,346.349,661.425,354.682L661.425,363.016" class="er relationshipLine"></path><path style="stroke: gray; fill: none;" marker-start="url(#ONLY_ONE_START)" marker-end="url(#ZERO_OR_MORE_END)" d="M1042.456,247.893L1018.022,258.747C993.589,269.601,944.722,291.308,920.289,310.495C895.855,329.682,895.855,346.349,895.855,354.682L895.855,363.016" class="er relationshipLine"></path><path style="stroke: gray; fill: none;" marker-start="url(#ONLY_ONE_START)" marker-end="url(#ZERO_OR_MORE_END)" d="M1187.86,263.016L1181.407,271.349C1174.955,279.682,1162.049,296.349,1155.597,313.016C1149.144,329.682,1149.144,346.349,1149.144,354.682L1149.144,363.016" class="er relationshipLine"></path><path style="stroke: gray; fill: none;" marker-start="url(#ONLY_ONE_START)" marker-end="url(#ZERO_OR_MORE_END)" d="M1376.03,263.016L1382.483,271.349C1388.935,279.682,1401.84,296.349,1408.293,313.016C1414.746,329.682,1414.746,346.349,1414.746,354.682L1414.746,363.016" class="er relationshipLine"></path><path style="stroke: gray; fill: none;" marker-start="url(#ONLY_ONE_START)" marker-end="url(#ZERO_OR_MORE_END)" d="M1521.434,249.32L1545.016,259.936C1568.598,270.552,1615.762,291.784,1639.344,310.733C1662.925,329.682,1662.925,346.349,1662.925,354.682L1662.925,363.016" class="er relationshipLine"></path><path style="stroke: gray; fill: none;" marker-start="url(#ONLY_ONE_START)" marker-end="url(#ZERO_OR_MORE_END)" d="M1521.434,206.304L1587.17,224.089C1652.905,241.874,1784.376,277.445,1850.112,303.564C1915.847,329.682,1915.847,346.349,1915.847,354.682L1915.847,363.016" class="er relationshipLine"></path><path style="stroke: gray; fill: none;" marker-start="url(#ONLY_ONE_START)" marker-end="url(#ZERO_OR_MORE_END)" d="M1521.434,188.149L1628.292,208.96C1735.15,229.771,1948.866,271.394,2055.724,300.538C2162.582,329.682,2162.582,346.349,2162.582,354.682L2162.582,363.016" class="er relationshipLine"></path><path style="stroke: gray; fill: none;" marker-start="url(#ONLY_ONE_START)" marker-end="url(#ZERO_OR_MORE_END)" d="M2748.127,179.016L2685.571,201.349C2623.016,223.682,2497.904,268.349,2435.348,301.014C2372.793,333.68,2372.793,354.344,2372.793,364.676L2372.793,375.008" class="er relationshipLine"></path><path style="stroke: gray; fill: none;" marker-start="url(#ONLY_ONE_START)" marker-end="url(#ZERO_OR_MORE_END)" d="M2797.623,179.016L2764.538,201.349C2731.453,223.682,2665.284,268.349,2632.199,301.014C2599.115,333.68,2599.115,354.344,2599.115,364.676L2599.115,375.008" class="er relationshipLine"></path><path style="stroke: gray; fill: none;" marker-start="url(#ONLY_ONE_START)" marker-end="url(#ZERO_OR_MORE_END)" d="M2853.187,179.016L2853.187,201.349C2853.187,223.682,2853.187,268.349,2853.187,301.014C2853.187,333.68,2853.187,354.344,2853.187,364.676L2853.187,375.008" class="er relationshipLine"></path><path style="stroke: gray; fill: none;" marker-start="url(#ONLY_ONE_START)" marker-end="url(#ZERO_OR_MORE_END)" d="M2925.486,179.016L2968.536,201.349C3011.585,223.682,3097.684,268.349,3140.733,301.014C3183.783,333.68,3183.783,354.344,3183.783,364.676L3183.783,375.008" class="er relationshipLine"></path><path style="stroke: gray; fill: none;" marker-start="url(#ONLY_ONE_START)" marker-end="url(#ZERO_OR_MORE_END)" d="M2992.705,179.016L3075.779,201.349C3158.853,223.682,3325,268.349,3408.074,301.014C3491.147,333.68,3491.147,354.344,3491.147,364.676L3491.147,375.008" class="er relationshipLine"></path><g transform="translate(92.41163635253906,104 )" id="entity-SQUAD-24eec219-e5b0-5f23-876c-30b97850a328"><rect height="75.015625" width="223.01190185546875" y="0" x="0" class="er entityBox"></rect><text style="dominant-baseline: middle; text-anchor: middle; font-size: 12px;" transform="translate(111.50595092773438,13.5078125)" y="0" x="0" id="text-entity-SQUAD-24eec219-e5b0-5f23-876c-30b97850a328" class="er entityLabel">SQUAD</text><rect height="24" width="43.671875" y="27.015625" x="0" class="er attributeBoxOdd"></rect><text style="dominant-baseline: middle; font-size: 10.2px;" transform="translate(5,39.015625)" y="0" x="0" id="text-entity-SQUAD-24eec219-e5b0-5f23-876c-30b97850a328-attr-1-type" class="er entityLabel">string</text><rect height="24" width="37.34002685546875" y="27.015625" x="43.671875" class="er attributeBoxOdd"></rect><text style="dominant-baseline: middle; font-size: 10.2px;" transform="translate(48.671875,39.015625)" y="0" x="0" id="text-entity-SQUAD-24eec219-e5b0-5f23-876c-30b97850a328-attr-1-name" class="er entityLabel">name</text><rect height="24" width="142" y="27.015625" x="81.01190185546875" class="er attributeBoxOdd"></rect><text style="dominant-baseline: middle; font-size: 10.2px;" transform="translate(86.01190185546875,39.015625)" y="0" x="0" id="text-entity-SQUAD-24eec219-e5b0-5f23-876c-30b97850a328-attr-1-comment" class="er entityLabel"></text><rect height="24" width="43.671875" y="51.015625" x="0" class="er attributeBoxEven"></rect><text style="dominant-baseline: middle; font-size: 10.2px;" transform="translate(5,63.015625)" y="0" x="0" id="text-entity-SQUAD-24eec219-e5b0-5f23-876c-30b97850a328-attr-2-type" class="er entityLabel">string[]</text><rect height="24" width="37.34002685546875" y="51.015625" x="43.671875" class="er attributeBoxEven"></rect><text style="dominant-baseline: middle; font-size: 10.2px;" transform="translate(48.671875,63.015625)" y="0" x="0" id="text-entity-SQUAD-24eec219-e5b0-5f23-876c-30b97850a328-attr-2-name" class="er entityLabel">types</text><rect height="24" width="142" y="51.015625" x="81.01190185546875" class="er attributeBoxEven"></rect><text style="dominant-baseline: middle; font-size: 10.2px;" transform="translate(86.01190185546875,63.015625)" y="0" x="0" id="text-entity-SQUAD-24eec219-e5b0-5f23-876c-30b97850a328-attr-2-comment" class="er entityLabel">iOS, Android, Web, Backend</text></g><g transform="translate(153.91758728027344,375.0078125 )" id="entity-PLATFORM-fae36e4f-c913-5f84-8915-e0199e7bc050"><rect height="51.015625" width="100" y="0" x="0" class="er entityBox"></rect><text style="dominant-baseline: middle; text-anchor: middle; font-size: 12px;" transform="translate(50,13.5078125)" y="0" x="0" id="text-entity-PLATFORM-fae36e4f-c913-5f84-8915-e0199e7bc050" class="er entityLabel">PLATFORM</text><rect height="24" width="53.25074768066406" y="27.015625" x="0" class="er attributeBoxOdd"></rect><text style="dominant-baseline: middle; font-size: 10.2px;" transform="translate(5,39.015625)" y="0" x="0" id="text-entity-PLATFORM-fae36e4f-c913-5f84-8915-e0199e7bc050-attr-1-type" class="er entityLabel">string</text><rect height="24" width="46.74925231933594" y="27.015625" x="53.25074768066406" class="er attributeBoxOdd"></rect><text style="dominant-baseline: middle; font-size: 10.2px;" transform="translate(58.25074768066406,39.015625)" y="0" x="0" id="text-entity-PLATFORM-fae36e4f-c913-5f84-8915-e0199e7bc050-attr-1-name" class="er entityLabel">type</text></g><g transform="translate(96.07540893554688,538.015625 )" id="entity-PLATFORMRESOURCE-e2eb9903-0aaa-5cb0-b528-9b1a0ac5d928"><rect height="51.015625" width="215.68435668945312" y="0" x="0" class="er entityBox"></rect><text style="dominant-baseline: middle; text-anchor: middle; font-size: 12px;" transform="translate(107.84217834472656,13.5078125)" y="0" x="0" id="text-entity-PLATFORMRESOURCE-e2eb9903-0aaa-5cb0-b528-9b1a0ac5d928" class="er entityLabel">PLATFORM-RESOURCE</text><rect height="24" width="37.4693603515625" y="27.015625" x="0" class="er attributeBoxOdd"></rect><text style="dominant-baseline: middle; font-size: 10.2px;" transform="translate(5,39.015625)" y="0" x="0" id="text-entity-PLATFORMRESOURCE-e2eb9903-0aaa-5cb0-b528-9b1a0ac5d928-attr-1-type" class="er entityLabel">string</text><rect height="24" width="63.25" y="27.015625" x="37.4693603515625" class="er attributeBoxOdd"></rect><text style="dominant-baseline: middle; font-size: 10.2px;" transform="translate(42.4693603515625,39.015625)" y="0" x="0" id="text-entity-PLATFORMRESOURCE-e2eb9903-0aaa-5cb0-b528-9b1a0ac5d928-attr-1-name" class="er entityLabel">description</text><rect height="24" width="114.96499633789062" y="27.015625" x="100.7193603515625" class="er attributeBoxOdd"></rect><text style="dominant-baseline: middle; font-size: 10.2px;" transform="translate(105.7193603515625,39.015625)" y="0" x="0" id="text-entity-PLATFORMRESOURCE-e2eb9903-0aaa-5cb0-b528-9b1a0ac5d928-attr-1-comment" class="er entityLabel">Release Manager Role</text></g><g transform="translate(78.22679138183594,689.03125 )" id="entity-RELEASEMANAGER-eef2d953-7851-5246-9d64-0e79d8ab2466"><rect height="51.015625" width="251.381591796875" y="0" x="0" class="er entityBox"></rect><text style="dominant-baseline: middle; text-anchor: middle; font-size: 12px;" transform="translate(125.6907958984375,13.5078125)" y="0" x="0" id="text-entity-RELEASEMANAGER-eef2d953-7851-5246-9d64-0e79d8ab2466" class="er entityLabel">RELEASE-MANAGER</text><rect height="24" width="37.4693603515625" y="27.015625" x="0" class="er attributeBoxOdd"></rect><text style="dominant-baseline: middle; font-size: 10.2px;" transform="translate(5,39.015625)" y="0" x="0" id="text-entity-RELEASEMANAGER-eef2d953-7851-5246-9d64-0e79d8ab2466-attr-1-type" class="er entityLabel">string</text><rect height="24" width="28.86370849609375" y="27.015625" x="37.4693603515625" class="er attributeBoxOdd"></rect><text style="dominant-baseline: middle; font-size: 10.2px;" transform="translate(42.4693603515625,39.015625)" y="0" x="0" id="text-entity-RELEASEMANAGER-eef2d953-7851-5246-9d64-0e79d8ab2466-attr-1-name" class="er entityLabel">role</text><rect height="24" width="185.04852294921875" y="27.015625" x="66.33306884765625" class="er attributeBoxOdd"></rect><text style="dominant-baseline: middle; font-size: 10.2px;" transform="translate(71.33306884765625,39.015625)" y="0" x="0" id="text-entity-RELEASEMANAGER-eef2d953-7851-5246-9d64-0e79d8ab2466-attr-1-comment" class="er entityLabel">iOS, Android, Web, Backend, Product</text></g><g transform="translate(20,840.046875 )" id="entity-SQUADTYPE-c33e5d67-6962-5ffd-8b9d-9e6c3645e711"><rect height="75.015625" width="367.8351745605469" y="0" x="0" class="er entityBox"></rect><text style="dominant-baseline: middle; text-anchor: middle; font-size: 12px;" transform="translate(183.91758728027344,13.5078125)" y="0" x="0" id="text-entity-SQUADTYPE-c33e5d67-6962-5ffd-8b9d-9e6c3645e711" class="er entityLabel">SQUAD-TYPE</text><rect height="24" width="43.671875" y="27.015625" x="0" class="er attributeBoxOdd"></rect><text style="dominant-baseline: middle; font-size: 10.2px;" transform="translate(5,39.015625)" y="0" x="0" id="text-entity-SQUADTYPE-c33e5d67-6962-5ffd-8b9d-9e6c3645e711-attr-1-type" class="er entityLabel">string</text><rect height="24" width="54.382049560546875" y="27.015625" x="43.671875" class="er attributeBoxOdd"></rect><text style="dominant-baseline: middle; font-size: 10.2px;" transform="translate(48.671875,39.015625)" y="0" x="0" id="text-entity-SQUADTYPE-c33e5d67-6962-5ffd-8b9d-9e6c3645e711-attr-1-name" class="er entityLabel">name</text><rect height="24" width="269.78125" y="27.015625" x="98.05392456054688" class="er attributeBoxOdd"></rect><text style="dominant-baseline: middle; font-size: 10.2px;" transform="translate(103.05392456054688,39.015625)" y="0" x="0" id="text-entity-SQUADTYPE-c33e5d67-6962-5ffd-8b9d-9e6c3645e711-attr-1-comment" class="er entityLabel"></text><rect height="24" width="43.671875" y="51.015625" x="0" class="er attributeBoxEven"></rect><text style="dominant-baseline: middle; font-size: 10.2px;" transform="translate(5,63.015625)" y="0" x="0" id="text-entity-SQUADTYPE-c33e5d67-6962-5ffd-8b9d-9e6c3645e711-attr-2-type" class="er entityLabel">string[]</text><rect height="24" width="54.382049560546875" y="51.015625" x="43.671875" class="er attributeBoxEven"></rect><text style="dominant-baseline: middle; font-size: 10.2px;" transform="translate(48.671875,63.015625)" y="0" x="0" id="text-entity-SQUADTYPE-c33e5d67-6962-5ffd-8b9d-9e6c3645e711-attr-2-name" class="er entityLabel">functions</text><rect height="24" width="269.78125" y="51.015625" x="98.05392456054688" class="er attributeBoxEven"></rect><text style="dominant-baseline: middle; font-size: 10.2px;" transform="translate(103.05392456054688,63.015625)" y="0" x="0" id="text-entity-SQUADTYPE-c33e5d67-6962-5ffd-8b9d-9e6c3645e711-attr-2-comment" class="er entityLabel">Shopping, Buying, Lender Integration, Data, Innovation</text></g><g transform="translate(150.519287109375,1015.0625 )" id="entity-CICD-c501f571-2922-5778-9c76-8896a81be48e"><rect height="51.015625" width="106.79660034179688" y="0" x="0" class="er entityBox"></rect><text style="dominant-baseline: middle; text-anchor: middle; font-size: 12px;" transform="translate(53.39830017089844,13.5078125)" y="0" x="0" id="text-entity-CICD-c501f571-2922-5778-9c76-8896a81be48e" class="er entityLabel">CI_CD</text><rect height="24" width="37.4693603515625" y="27.015625" x="0" class="er attributeBoxOdd"></rect><text style="dominant-baseline: middle; font-size: 10.2px;" transform="translate(5,39.015625)" y="0" x="0" id="text-entity-CICD-c501f571-2922-5778-9c76-8896a81be48e-attr-1-type" class="er entityLabel">string</text><rect height="24" width="30.967864990234375" y="27.015625" x="37.4693603515625" class="er attributeBoxOdd"></rect><text style="dominant-baseline: middle; font-size: 10.2px;" transform="translate(42.4693603515625,39.015625)" y="0" x="0" id="text-entity-CICD-c501f571-2922-5778-9c76-8896a81be48e-attr-1-name" class="er entityLabel">type</text><rect height="24" width="38.359375" y="27.015625" x="68.43722534179688" class="er attributeBoxOdd"></rect><text style="dominant-baseline: middle; font-size: 10.2px;" transform="translate(73.43722534179688,39.015625)" y="0" x="0" id="text-entity-CICD-c501f571-2922-5778-9c76-8896a81be48e-attr-1-comment" class="er entityLabel">CI, CD</text></g><g transform="translate(1042.4556579589844,20 )" id="entity-RELEASEMANAGEMENT-8bd3544f-c1aa-5a0d-89b4-8a967d6a8ac4"><rect height="243.015625" width="478.9785461425781" y="0" x="0" class="er entityBox"></rect><text style="dominant-baseline: middle; text-anchor: middle; font-size: 12px;" transform="translate(239.48927307128906,13.5078125)" y="0" x="0" id="text-entity-RELEASEMANAGEMENT-8bd3544f-c1aa-5a0d-89b4-8a967d6a8ac4" class="er entityLabel">RELEASE-MANAGEMENT</text><rect height="24" width="37.4693603515625" y="27.015625" x="0" class="er attributeBoxOdd"></rect><text style="dominant-baseline: middle; font-size: 10.2px;" transform="translate(5,39.015625)" y="0" x="0" id="text-entity-RELEASEMANAGEMENT-8bd3544f-c1aa-5a0d-89b4-8a967d6a8ac4-attr-1-type" class="er entityLabel">string</text><rect height="24" width="142.71682739257812" y="27.015625" x="37.4693603515625" class="er attributeBoxOdd"></rect><text style="dominant-baseline: middle; font-size: 10.2px;" transform="translate(42.4693603515625,39.015625)" y="0" x="0" id="text-entity-RELEASEMANAGEMENT-8bd3544f-c1aa-5a0d-89b4-8a967d6a8ac4-attr-1-name" class="er entityLabel">process</text><rect height="24" width="298.7923583984375" y="27.015625" x="180.18618774414062" class="er attributeBoxOdd"></rect><text style="dominant-baseline: middle; font-size: 10.2px;" transform="translate(185.18618774414062,39.015625)" y="0" x="0" id="text-entity-RELEASEMANAGEMENT-8bd3544f-c1aa-5a0d-89b4-8a967d6a8ac4-attr-1-comment" class="er entityLabel"></text><rect height="24" width="37.4693603515625" y="51.015625" x="0" class="er attributeBoxEven"></rect><text style="dominant-baseline: middle; font-size: 10.2px;" transform="translate(5,63.015625)" y="0" x="0" id="text-entity-RELEASEMANAGEMENT-8bd3544f-c1aa-5a0d-89b4-8a967d6a8ac4-attr-2-type" class="er entityLabel">string</text><rect height="24" width="142.71682739257812" y="51.015625" x="37.4693603515625" class="er attributeBoxEven"></rect><text style="dominant-baseline: middle; font-size: 10.2px;" transform="translate(42.4693603515625,63.015625)" y="0" x="0" id="text-entity-RELEASEMANAGEMENT-8bd3544f-c1aa-5a0d-89b4-8a967d6a8ac4-attr-2-name" class="er entityLabel">testingCoverage</text><rect height="24" width="298.7923583984375" y="51.015625" x="180.18618774414062" class="er attributeBoxEven"></rect><text style="dominant-baseline: middle; font-size: 10.2px;" transform="translate(185.18618774414062,63.015625)" y="0" x="0" id="text-entity-RELEASEMANAGEMENT-8bd3544f-c1aa-5a0d-89b4-8a967d6a8ac4-attr-2-comment" class="er entityLabel">API endpoints &amp; Integration: Yes, Functional + E2E: No</text><rect height="24" width="37.4693603515625" y="75.015625" x="0" class="er attributeBoxOdd"></rect><text style="dominant-baseline: middle; font-size: 10.2px;" transform="translate(5,87.015625)" y="0" x="0" id="text-entity-RELEASEMANAGEMENT-8bd3544f-c1aa-5a0d-89b4-8a967d6a8ac4-attr-3-type" class="er entityLabel">string</text><rect height="24" width="142.71682739257812" y="75.015625" x="37.4693603515625" class="er attributeBoxOdd"></rect><text style="dominant-baseline: middle; font-size: 10.2px;" transform="translate(42.4693603515625,87.015625)" y="0" x="0" id="text-entity-RELEASEMANAGEMENT-8bd3544f-c1aa-5a0d-89b4-8a967d6a8ac4-attr-3-name" class="er entityLabel">infrastructure</text><rect height="24" width="298.7923583984375" y="75.015625" x="180.18618774414062" class="er attributeBoxOdd"></rect><text style="dominant-baseline: middle; font-size: 10.2px;" transform="translate(185.18618774414062,87.015625)" y="0" x="0" id="text-entity-RELEASEMANAGEMENT-8bd3544f-c1aa-5a0d-89b4-8a967d6a8ac4-attr-3-comment" class="er entityLabel">Flexible: Docker</text><rect height="24" width="37.4693603515625" y="99.015625" x="0" class="er attributeBoxEven"></rect><text style="dominant-baseline: middle; font-size: 10.2px;" transform="translate(5,111.015625)" y="0" x="0" id="text-entity-RELEASEMANAGEMENT-8bd3544f-c1aa-5a0d-89b4-8a967d6a8ac4-attr-4-type" class="er entityLabel">string</text><rect height="24" width="142.71682739257812" y="99.015625" x="37.4693603515625" class="er attributeBoxEven"></rect><text style="dominant-baseline: middle; font-size: 10.2px;" transform="translate(42.4693603515625,111.015625)" y="0" x="0" id="text-entity-RELEASEMANAGEMENT-8bd3544f-c1aa-5a0d-89b4-8a967d6a8ac4-attr-4-name" class="er entityLabel">versionControl</text><rect height="24" width="298.7923583984375" y="99.015625" x="180.18618774414062" class="er attributeBoxEven"></rect><text style="dominant-baseline: middle; font-size: 10.2px;" transform="translate(185.18618774414062,111.015625)" y="0" x="0" id="text-entity-RELEASEMANAGEMENT-8bd3544f-c1aa-5a0d-89b4-8a967d6a8ac4-attr-4-comment" class="er entityLabel">Git</text><rect height="24" width="37.4693603515625" y="123.015625" x="0" class="er attributeBoxOdd"></rect><text style="dominant-baseline: middle; font-size: 10.2px;" transform="translate(5,135.015625)" y="0" x="0" id="text-entity-RELEASEMANAGEMENT-8bd3544f-c1aa-5a0d-89b4-8a967d6a8ac4-attr-5-type" class="er entityLabel">string</text><rect height="24" width="142.71682739257812" y="123.015625" x="37.4693603515625" class="er attributeBoxOdd"></rect><text style="dominant-baseline: middle; font-size: 10.2px;" transform="translate(42.4693603515625,135.015625)" y="0" x="0" id="text-entity-RELEASEMANAGEMENT-8bd3544f-c1aa-5a0d-89b4-8a967d6a8ac4-attr-5-name" class="er entityLabel">sourceCodeProcess</text><rect height="24" width="298.7923583984375" y="123.015625" x="180.18618774414062" class="er attributeBoxOdd"></rect><text style="dominant-baseline: middle; font-size: 10.2px;" transform="translate(185.18618774414062,135.015625)" y="0" x="0" id="text-entity-RELEASEMANAGEMENT-8bd3544f-c1aa-5a0d-89b4-8a967d6a8ac4-attr-5-comment" class="er entityLabel">Manual or Automatic</text><rect height="24" width="37.4693603515625" y="147.015625" x="0" class="er attributeBoxEven"></rect><text style="dominant-baseline: middle; font-size: 10.2px;" transform="translate(5,159.015625)" y="0" x="0" id="text-entity-RELEASEMANAGEMENT-8bd3544f-c1aa-5a0d-89b4-8a967d6a8ac4-attr-6-type" class="er entityLabel">string</text><rect height="24" width="142.71682739257812" y="147.015625" x="37.4693603515625" class="er attributeBoxEven"></rect><text style="dominant-baseline: middle; font-size: 10.2px;" transform="translate(42.4693603515625,159.015625)" y="0" x="0" id="text-entity-RELEASEMANAGEMENT-8bd3544f-c1aa-5a0d-89b4-8a967d6a8ac4-attr-6-name" class="er entityLabel">feedbackMechanism</text><rect height="24" width="298.7923583984375" y="147.015625" x="180.18618774414062" class="er attributeBoxEven"></rect><text style="dominant-baseline: middle; font-size: 10.2px;" transform="translate(185.18618774414062,159.015625)" y="0" x="0" id="text-entity-RELEASEMANAGEMENT-8bd3544f-c1aa-5a0d-89b4-8a967d6a8ac4-attr-6-comment" class="er entityLabel">Test Rails + Jira + Git</text><rect height="24" width="37.4693603515625" y="171.015625" x="0" class="er attributeBoxOdd"></rect><text style="dominant-baseline: middle; font-size: 10.2px;" transform="translate(5,183.015625)" y="0" x="0" id="text-entity-RELEASEMANAGEMENT-8bd3544f-c1aa-5a0d-89b4-8a967d6a8ac4-attr-7-type" class="er entityLabel">string</text><rect height="24" width="142.71682739257812" y="171.015625" x="37.4693603515625" class="er attributeBoxOdd"></rect><text style="dominant-baseline: middle; font-size: 10.2px;" transform="translate(42.4693603515625,183.015625)" y="0" x="0" id="text-entity-RELEASEMANAGEMENT-8bd3544f-c1aa-5a0d-89b4-8a967d6a8ac4-attr-7-name" class="er entityLabel">testingProcess</text><rect height="24" width="298.7923583984375" y="171.015625" x="180.18618774414062" class="er attributeBoxOdd"></rect><text style="dominant-baseline: middle; font-size: 10.2px;" transform="translate(185.18618774414062,183.015625)" y="0" x="0" id="text-entity-RELEASEMANAGEMENT-8bd3544f-c1aa-5a0d-89b4-8a967d6a8ac4-attr-7-comment" class="er entityLabel">Automation + End 2 End + Acceptance + Production Checklist</text><rect height="24" width="37.4693603515625" y="195.015625" x="0" class="er attributeBoxEven"></rect><text style="dominant-baseline: middle; font-size: 10.2px;" transform="translate(5,207.015625)" y="0" x="0" id="text-entity-RELEASEMANAGEMENT-8bd3544f-c1aa-5a0d-89b4-8a967d6a8ac4-attr-8-type" class="er entityLabel">string</text><rect height="24" width="142.71682739257812" y="195.015625" x="37.4693603515625" class="er attributeBoxEven"></rect><text style="dominant-baseline: middle; font-size: 10.2px;" transform="translate(42.4693603515625,207.015625)" y="0" x="0" id="text-entity-RELEASEMANAGEMENT-8bd3544f-c1aa-5a0d-89b4-8a967d6a8ac4-attr-8-name" class="er entityLabel">releaseManagerRole</text><rect height="24" width="298.7923583984375" y="195.015625" x="180.18618774414062" class="er attributeBoxEven"></rect><text style="dominant-baseline: middle; font-size: 10.2px;" transform="translate(185.18618774414062,207.015625)" y="0" x="0" id="text-entity-RELEASEMANAGEMENT-8bd3544f-c1aa-5a0d-89b4-8a967d6a8ac4-attr-8-comment" class="er entityLabel">Review, Verify Commit and Merge</text><rect height="24" width="37.4693603515625" y="219.015625" x="0" class="er attributeBoxOdd"></rect><text style="dominant-baseline: middle; font-size: 10.2px;" transform="translate(5,231.015625)" y="0" x="0" id="text-entity-RELEASEMANAGEMENT-8bd3544f-c1aa-5a0d-89b4-8a967d6a8ac4-attr-9-type" class="er entityLabel">string</text><rect height="24" width="142.71682739257812" y="219.015625" x="37.4693603515625" class="er attributeBoxOdd"></rect><text style="dominant-baseline: middle; font-size: 10.2px;" transform="translate(42.4693603515625,231.015625)" y="0" x="0" id="text-entity-RELEASEMANAGEMENT-8bd3544f-c1aa-5a0d-89b4-8a967d6a8ac4-attr-9-name" class="er entityLabel">microservicesDependencies</text><rect height="24" width="298.7923583984375" y="219.015625" x="180.18618774414062" class="er attributeBoxOdd"></rect><text style="dominant-baseline: middle; font-size: 10.2px;" transform="translate(185.18618774414062,231.015625)" y="0" x="0" id="text-entity-RELEASEMANAGEMENT-8bd3544f-c1aa-5a0d-89b4-8a967d6a8ac4-attr-9-comment" class="er entityLabel">CAMS + IMS</text></g><g transform="translate(353.91758728027344,363.015625 )" id="entity-TESTINGCOVERAGE-8162f23b-f23e-5393-8fe5-d7a99673aea3"><rect height="75" width="142.546875" y="0" x="0" class="er entityBox"></rect><text style="dominant-baseline: middle; text-anchor: middle; font-size: 12px;" transform="translate(71.2734375,37.5)" y="0" x="0" id="text-entity-TESTINGCOVERAGE-8162f23b-f23e-5393-8fe5-d7a99673aea3" class="er entityLabel">TESTING-COVERAGE</text></g><g transform="translate(596.4644622802734,363.015625 )" id="entity-INFRASTRUCTURE-02b93383-328b-5c5b-87f3-aa150cf59926"><rect height="75" width="129.921875" y="0" x="0" class="er entityBox"></rect><text style="dominant-baseline: middle; text-anchor: middle; font-size: 12px;" transform="translate(64.9609375,37.5)" y="0" x="0" id="text-entity-INFRASTRUCTURE-02b93383-328b-5c5b-87f3-aa150cf59926" class="er entityLabel">INFRASTRUCTURE</text></g><g transform="translate(826.3863372802734,363.015625 )" id="entity-VERSIONCONTROL-7702f34c-b637-5414-aac4-8cc798d124fc"><rect height="75" width="138.9375" y="0" x="0" class="er entityBox"></rect><text style="dominant-baseline: middle; text-anchor: middle; font-size: 12px;" transform="translate(69.46875,37.5)" y="0" x="0" id="text-entity-VERSIONCONTROL-7702f34c-b637-5414-aac4-8cc798d124fc" class="er entityLabel">VERSION-CONTROL</text></g><g transform="translate(1065.3238372802734,363.015625 )" id="entity-SOURCECODEPROCESS-ef99e54e-740f-545a-90ad-0d10255a60d7"><rect height="75" width="167.640625" y="0" x="0" class="er entityBox"></rect><text style="dominant-baseline: middle; text-anchor: middle; font-size: 12px;" transform="translate(83.8203125,37.5)" y="0" x="0" id="text-entity-SOURCECODEPROCESS-ef99e54e-740f-545a-90ad-0d10255a60d7" class="er entityLabel">SOURCE-CODE-PROCESS</text></g><g transform="translate(1332.9644622802734,363.015625 )" id="entity-FEEDBACKMECHANISM-17f06f1b-8b94-5f57-b9df-4647914c3033"><rect height="75" width="163.5625" y="0" x="0" class="er entityBox"></rect><text style="dominant-baseline: middle; text-anchor: middle; font-size: 12px;" transform="translate(81.78125,37.5)" y="0" x="0" id="text-entity-FEEDBACKMECHANISM-17f06f1b-8b94-5f57-b9df-4647914c3033" class="er entityLabel">FEEDBACK-MECHANISM</text></g><g transform="translate(1596.5269622802734,363.015625 )" id="entity-TESTINGPROCESS-5de6b13b-02a6-5ff2-b829-a58173fec4f0"><rect height="75" width="132.796875" y="0" x="0" class="er entityBox"></rect><text style="dominant-baseline: middle; text-anchor: middle; font-size: 12px;" transform="translate(66.3984375,37.5)" y="0" x="0" id="text-entity-TESTINGPROCESS-5de6b13b-02a6-5ff2-b829-a58173fec4f0" class="er entityLabel">TESTING-PROCESS</text></g><g transform="translate(1829.3238372802734,363.015625 )" id="entity-RELEASEMANAGERROLE-c8b686a6-e527-5e3a-82c0-9e9ab16860fc"><rect height="75" width="173.046875" y="0" x="0" class="er entityBox"></rect><text style="dominant-baseline: middle; text-anchor: middle; font-size: 12px;" transform="translate(86.5234375,37.5)" y="0" x="0" id="text-entity-RELEASEMANAGERROLE-c8b686a6-e527-5e3a-82c0-9e9ab16860fc" class="er entityLabel">RELEASE-MANAGER-ROLE</text></g><g transform="translate(2102.3707122802734,363.015625 )" id="entity-MICROSERVICES-57fd0a63-5068-56d8-b8e0-6a253d2ae9bd"><rect height="75" width="120.421875" y="0" x="0" class="er entityBox"></rect><text style="dominant-baseline: middle; text-anchor: middle; font-size: 12px;" transform="translate(60.2109375,37.5)" y="0" x="0" id="text-entity-MICROSERVICES-57fd0a63-5068-56d8-b8e0-6a253d2ae9bd" class="er entityLabel">MICROSERVICES</text></g><g transform="translate(2604.9324645996094,104 )" id="entity-RELEASEPIPELINEFLOW-975fe97e-fc00-547b-8c93-47b0e68bba5f"><rect height="75.015625" width="496.5085144042969" y="0" x="0" class="er entityBox"></rect><text style="dominant-baseline: middle; text-anchor: middle; font-size: 12px;" transform="translate(248.25425720214844,13.5078125)" y="0" x="0" id="text-entity-RELEASEPIPELINEFLOW-975fe97e-fc00-547b-8c93-47b0e68bba5f" class="er entityLabel">RELEASE-PIPELINE-FLOW</text><rect height="24" width="37.4693603515625" y="27.015625" x="0" class="er attributeBoxOdd"></rect><text style="dominant-baseline: middle; font-size: 10.2px;" transform="translate(5,39.015625)" y="0" x="0" id="text-entity-RELEASEPIPELINEFLOW-975fe97e-fc00-547b-8c93-47b0e68bba5f-attr-1-type" class="er entityLabel">string</text><rect height="24" width="108.13006591796875" y="27.015625" x="37.4693603515625" class="er attributeBoxOdd"></rect><text style="dominant-baseline: middle; font-size: 10.2px;" transform="translate(42.4693603515625,39.015625)" y="0" x="0" id="text-entity-RELEASEPIPELINEFLOW-975fe97e-fc00-547b-8c93-47b0e68bba5f-attr-1-name" class="er entityLabel">stage</text><rect height="24" width="350.9090881347656" y="27.015625" x="145.59942626953125" class="er attributeBoxOdd"></rect><text style="dominant-baseline: middle; font-size: 10.2px;" transform="translate(150.59942626953125,39.015625)" y="0" x="0" id="text-entity-RELEASEPIPELINEFLOW-975fe97e-fc00-547b-8c93-47b0e68bba5f-attr-1-comment" class="er entityLabel">1. Code, 1a. Code Analysis, 3a. Acceptance Testing, 2. Commit, 3. Deploy</text><rect height="24" width="37.4693603515625" y="51.015625" x="0" class="er attributeBoxEven"></rect><text style="dominant-baseline: middle; font-size: 10.2px;" transform="translate(5,63.015625)" y="0" x="0" id="text-entity-RELEASEPIPELINEFLOW-975fe97e-fc00-547b-8c93-47b0e68bba5f-attr-2-type" class="er entityLabel">string</text><rect height="24" width="108.13006591796875" y="51.015625" x="37.4693603515625" class="er attributeBoxEven"></rect><text style="dominant-baseline: middle; font-size: 10.2px;" transform="translate(42.4693603515625,63.015625)" y="0" x="0" id="text-entity-RELEASEPIPELINEFLOW-975fe97e-fc00-547b-8c93-47b0e68bba5f-attr-2-name" class="er entityLabel">deployEnvironments</text><rect height="24" width="350.9090881347656" y="51.015625" x="145.59942626953125" class="er attributeBoxEven"></rect><text style="dominant-baseline: middle; font-size: 10.2px;" transform="translate(150.59942626953125,63.015625)" y="0" x="0" id="text-entity-RELEASEPIPELINEFLOW-975fe97e-fc00-547b-8c93-47b0e68bba5f-attr-2-comment" class="er entityLabel">QA + Staging</text></g><g transform="translate(2322.7925872802734,375.0078125 )" id="entity-CODE-974822f3-13ca-5fd5-a8f0-59c4b8f61f97"><rect height="51.015625" width="100" y="0" x="0" class="er entityBox"></rect><text style="dominant-baseline: middle; text-anchor: middle; font-size: 12px;" transform="translate(50,13.5078125)" y="0" x="0" id="text-entity-CODE-974822f3-13ca-5fd5-a8f0-59c4b8f61f97" class="er entityLabel">CODE</text><rect height="24" width="49.17218017578125" y="27.015625" x="0" class="er attributeBoxOdd"></rect><text style="dominant-baseline: middle; font-size: 10.2px;" transform="translate(5,39.015625)" y="0" x="0" id="text-entity-CODE-974822f3-13ca-5fd5-a8f0-59c4b8f61f97-attr-1-type" class="er entityLabel">string</text><rect height="24" width="50.82781982421875" y="27.015625" x="49.17218017578125" class="er attributeBoxOdd"></rect><text style="dominant-baseline: middle; font-size: 10.2px;" transform="translate(54.17218017578125,39.015625)" y="0" x="0" id="text-entity-CODE-974822f3-13ca-5fd5-a8f0-59c4b8f61f97-attr-1-name" class="er entityLabel">action</text></g><g transform="translate(2522.7925872802734,375.0078125 )" id="entity-CODEANALYSIS-98ac8fbe-a729-5bed-8b56-0df249cb04a2"><rect height="51.015625" width="152.64413452148438" y="0" x="0" class="er entityBox"></rect><text style="dominant-baseline: middle; text-anchor: middle; font-size: 12px;" transform="translate(76.32206726074219,13.5078125)" y="0" x="0" id="text-entity-CODEANALYSIS-98ac8fbe-a729-5bed-8b56-0df249cb04a2" class="er entityLabel">CODE-ANALYSIS</text><rect height="24" width="37.4693603515625" y="27.015625" x="0" class="er attributeBoxOdd"></rect><text style="dominant-baseline: middle; font-size: 10.2px;" transform="translate(5,39.015625)" y="0" x="0" id="text-entity-CODEANALYSIS-98ac8fbe-a729-5bed-8b56-0df249cb04a2-attr-1-type" class="er entityLabel">string</text><rect height="24" width="47.40625" y="27.015625" x="37.4693603515625" class="er attributeBoxOdd"></rect><text style="dominant-baseline: middle; font-size: 10.2px;" transform="translate(42.4693603515625,39.015625)" y="0" x="0" id="text-entity-CODEANALYSIS-98ac8fbe-a729-5bed-8b56-0df249cb04a2-attr-1-name" class="er entityLabel">method</text><rect height="24" width="67.76852416992188" y="27.015625" x="84.8756103515625" class="er attributeBoxOdd"></rect><text style="dominant-baseline: middle; font-size: 10.2px;" transform="translate(89.8756103515625,39.015625)" y="0" x="0" id="text-entity-CODEANALYSIS-98ac8fbe-a729-5bed-8b56-0df249cb04a2-attr-1-comment" class="er entityLabel">Peer Review</text></g><g transform="translate(2775.436721801758,375.0078125 )" id="entity-ACCEPTANCETESTING-be180747-9654-5120-bb29-631bbcb222fe"><rect height="51.015625" width="155.5" y="0" x="0" class="er entityBox"></rect><text style="dominant-baseline: middle; text-anchor: middle; font-size: 12px;" transform="translate(77.75,13.5078125)" y="0" x="0" id="text-entity-ACCEPTANCETESTING-be180747-9654-5120-bb29-631bbcb222fe" class="er entityLabel">ACCEPTANCE-TESTING</text><rect height="24" width="57.32834879557292" y="27.015625" x="0" class="er attributeBoxOdd"></rect><text style="dominant-baseline: middle; font-size: 10.2px;" transform="translate(5,39.015625)" y="0" x="0" id="text-entity-ACCEPTANCETESTING-be180747-9654-5120-bb29-631bbcb222fe-attr-1-type" class="er entityLabel">string</text><rect height="24" width="50.826853434244796" y="27.015625" x="57.32834879557292" class="er attributeBoxOdd"></rect><text style="dominant-baseline: middle; font-size: 10.2px;" transform="translate(62.32834879557292,39.015625)" y="0" x="0" id="text-entity-ACCEPTANCETESTING-be180747-9654-5120-bb29-631bbcb222fe-attr-1-name" class="er entityLabel">type</text><rect height="24" width="47.344797770182296" y="27.015625" x="108.15520222981772" class="er attributeBoxOdd"></rect><text style="dominant-baseline: middle; font-size: 10.2px;" transform="translate(113.15520222981772,39.015625)" y="0" x="0" id="text-entity-ACCEPTANCETESTING-be180747-9654-5120-bb29-631bbcb222fe-attr-1-comment" class="er entityLabel">E2E</text></g><g transform="translate(3030.936721801758,375.0078125 )" id="entity-COMMIT-896643f1-1fc0-5b37-899f-1e22a0386c79"><rect height="51.015625" width="305.6918640136719" y="0" x="0" class="er entityBox"></rect><text style="dominant-baseline: middle; text-anchor: middle; font-size: 12px;" transform="translate(152.84593200683594,13.5078125)" y="0" x="0" id="text-entity-COMMIT-896643f1-1fc0-5b37-899f-1e22a0386c79" class="er entityLabel">COMMIT</text><rect height="24" width="37.4693603515625" y="27.015625" x="0" class="er attributeBoxOdd"></rect><text style="dominant-baseline: middle; font-size: 10.2px;" transform="translate(5,39.015625)" y="0" x="0" id="text-entity-COMMIT-896643f1-1fc0-5b37-899f-1e22a0386c79-attr-1-type" class="er entityLabel">string</text><rect height="24" width="32.83807373046875" y="27.015625" x="37.4693603515625" class="er attributeBoxOdd"></rect><text style="dominant-baseline: middle; font-size: 10.2px;" transform="translate(42.4693603515625,39.015625)" y="0" x="0" id="text-entity-COMMIT-896643f1-1fc0-5b37-899f-1e22a0386c79-attr-1-name" class="er entityLabel">tests</text><rect height="24" width="235.38442993164062" y="27.015625" x="70.30743408203125" class="er attributeBoxOdd"></rect><text style="dominant-baseline: middle; font-size: 10.2px;" transform="translate(75.30743408203125,39.015625)" y="0" x="0" id="text-entity-COMMIT-896643f1-1fc0-5b37-899f-1e22a0386c79-attr-1-comment" class="er entityLabel">Unit Tests + Integration Tests + Automation E2E</text></g><g transform="translate(3436.6285858154297,375.0078125 )" id="entity-DEPLOY-1dad7a13-7171-51fa-b3d7-0578ea03c781"><rect height="51.015625" width="109.03768920898438" y="0" x="0" class="er entityBox"></rect><text style="dominant-baseline: middle; text-anchor: middle; font-size: 12px;" transform="translate(54.51884460449219,13.5078125)" y="0" x="0" id="text-entity-DEPLOY-1dad7a13-7171-51fa-b3d7-0578ea03c781" class="er entityLabel">DEPLOY</text><rect height="24" width="37.4693603515625" y="27.015625" x="0" class="er attributeBoxOdd"></rect><text style="dominant-baseline: middle; font-size: 10.2px;" transform="translate(5,39.015625)" y="0" x="0" id="text-entity-DEPLOY-1dad7a13-7171-51fa-b3d7-0578ea03c781-attr-1-type" class="er entityLabel">string</text><rect height="24" width="71.56832885742188" y="27.015625" x="37.4693603515625" class="er attributeBoxOdd"></rect><text style="dominant-baseline: middle; font-size: 10.2px;" transform="translate(42.4693603515625,39.015625)" y="0" x="0" id="text-entity-DEPLOY-1dad7a13-7171-51fa-b3d7-0578ea03c781-attr-1-name" class="er entityLabel">environment</text></g><rect height="17.015625" width="46.60546875" y="268.5041809082031" x="180.61526489257812" class="er relationshipLabelBox"></rect><text style="text-anchor: middle; dominant-baseline: middle; font-size: 12px;" y="277.0119934082031" x="203.91799926757812" id="rel1" class="er relationshipLabel">includes</text><rect height="17.015625" width="20.02734375" y="473.5116882324219" x="193.90432739257812" class="er relationshipLabelBox"></rect><text style="text-anchor: middle; dominant-baseline: middle; font-size: 12px;" y="482.0195007324219" x="203.91799926757812" id="rel2" class="er relationshipLabel">has</text><rect height="17.015625" width="49.09375" y="630.523193359375" x="179.37112426757812" class="er relationshipLabelBox"></rect><text style="text-anchor: middle; dominant-baseline: middle; font-size: 12px;" y="639.031005859375" x="203.91799926757812" id="rel3" class="er relationshipLabel">assigned</text><rect height="17.015625" width="51.05859375" y="781.5391845703125" x="178.38870239257812" class="er relationshipLabelBox"></rect><text style="text-anchor: middle; dominant-baseline: middle; font-size: 12px;" y="790.0469970703125" x="203.91799926757812" id="rel4" class="er relationshipLabel">manages</text><rect height="17.015625" width="25.81640625" y="956.55517578125" x="191.00979614257812" class="er relationshipLabelBox"></rect><text style="text-anchor: middle; dominant-baseline: middle; font-size: 12px;" y="965.06298828125" x="203.91799926757812" id="rel5" class="er relationshipLabel">uses</text><rect height="17.015640258789062" width="47.015625" y="246.4794692993164" x="697.67041015625" class="er relationshipLabelBox"></rect><text style="text-anchor: middle; dominant-baseline: middle; font-size: 12px;" y="254.98728942871094" x="721.17822265625" id="rel6" class="er relationshipLabel">requires</text><rect height="17.015625" width="39.087890625" y="257.2041320800781" x="818.05322265625" class="er relationshipLabelBox"></rect><text style="text-anchor: middle; dominant-baseline: middle; font-size: 12px;" y="265.7119445800781" x="837.59716796875" id="rel7" class="er relationshipLabel">utilizes</text><rect height="17.015625" width="25.81640625" y="281.5758361816406" x="939.7600708007812" class="er relationshipLabelBox"></rect><text style="text-anchor: middle; dominant-baseline: middle; font-size: 12px;" y="290.0836486816406" x="952.6682739257812" id="rel8" class="er relationshipLabel">uses</text><rect height="17.015625" width="46.60546875" y="300.371826171875" x="1134.023681640625" class="er relationshipLabelBox"></rect><text style="text-anchor: middle; dominant-baseline: middle; font-size: 12px;" y="308.879638671875" x="1157.326416015625" id="rel9" class="er relationshipLabel">includes</text><rect height="17.015625" width="20.02734375" y="300.37200927734375" x="1396.5498046875" class="er relationshipLabelBox"></rect><text style="text-anchor: middle; dominant-baseline: middle; font-size: 12px;" y="308.87982177734375" x="1406.5634765625" id="rel10" class="er relationshipLabel">has</text><rect height="17.015625" width="45.36328125" y="282.4653625488281" x="1586.0191650390625" class="er relationshipLabelBox"></rect><text style="text-anchor: middle; dominant-baseline: middle; font-size: 12px;" y="290.9731750488281" x="1608.7008056640625" id="rel11" class="er relationshipLabel">involves</text><rect height="17.015625" width="46.60546875" y="256.37762451171875" x="1709.567138671875" class="er relationshipLabelBox"></rect><text style="text-anchor: middle; dominant-baseline: middle; font-size: 12px;" y="264.88543701171875" x="1732.869873046875" id="rel12" class="er relationshipLabel">includes</text><rect height="17.015625" width="68.421875" y="245.72482299804688" x="1820.3026123046875" class="er relationshipLabelBox"></rect><text style="text-anchor: middle; dominant-baseline: middle; font-size: 12px;" y="254.23263549804688" x="1854.5135498046875" id="rel13" class="er relationshipLabel">depends_on</text><rect height="17.015625" width="60.796875" y="246.13372802734375" x="2511.186767578125" class="er relationshipLabelBox"></rect><text style="text-anchor: middle; dominant-baseline: middle; font-size: 12px;" y="254.64154052734375" x="2541.585205078125" id="rel14" class="er relationshipLabel">starts_with</text><rect height="17.015625" width="39.83203125" y="253.41192626953125" x="2658.779541015625" class="er relationshipLabelBox"></rect><text style="text-anchor: middle; dominant-baseline: middle; font-size: 12px;" y="261.91973876953125" x="2678.695556640625" id="rel15" class="er relationshipLabel">follows</text><rect height="17.015625" width="46.60546875" y="268.5041809082031" x="2829.88427734375" class="er relationshipLabelBox"></rect><text style="text-anchor: middle; dominant-baseline: middle; font-size: 12px;" y="277.0119934082031" x="2853.18701171875" id="rel16" class="er relationshipLabel">includes</text><rect height="17.015625" width="45.36328125" y="250.07119750976562" x="3051.796875" class="er relationshipLabelBox"></rect><text style="text-anchor: middle; dominant-baseline: middle; font-size: 12px;" y="258.5790100097656" x="3074.478515625" id="rel17" class="er relationshipLabel">involves</text><rect height="17.015640258789062" width="56.390625" y="243.9286880493164" x="3231.307373046875" class="er relationshipLabelBox"></rect><text style="text-anchor: middle; dominant-baseline: middle; font-size: 12px;" y="252.43650817871094" x="3259.502685546875" id="rel18" class="er relationshipLabel">ends_with</text></svg>